<svg width="100" height="33" viewBox="0 0 100 33" fill="none" xmlns="http://www.w3.org/2000/svg">
<rect width="100" height="33" rx="15" fill="#569A59"/>
<path d="M24.04 11.528V16.488H25.848V11.528H24.04ZM24.04 17.384V21.4H25.848V17.384H24.04ZM19.816 16.648V22.408H21.624V17.96H28.392V22.36H30.28V16.648H19.816ZM17.88 13.4V14.968H32.12V13.4H17.88ZM20.888 18.728V19.864H29.256V18.728H20.888ZM20.888 20.664V21.992H29.256V20.664H20.888ZM28.616 10.36C26.568 10.696 23.176 10.904 20.28 10.968C20.44 11.32 20.616 11.896 20.664 12.264C23.592 12.248 27.128 12.04 29.608 11.656L28.616 10.36ZM23.16 13.72C21.912 15.016 19.496 16.248 17.32 16.856C17.72 17.224 18.28 17.912 18.536 18.36C20.744 17.576 23.192 16.056 24.632 14.408L23.16 13.72ZM26.664 13.672L25.288 14.28C26.744 15.928 29.16 17.352 31.448 18.04C31.72 17.576 32.248 16.888 32.648 16.52C30.344 16.024 27.912 14.92 26.664 13.672ZM19.992 12.344C20.28 12.824 20.536 13.496 20.616 13.928L22.344 13.544C22.248 13.096 21.96 12.472 21.64 12.024L19.992 12.344ZM28.248 11.816C28.088 12.328 27.768 13.064 27.496 13.576L29 14.04C29.336 13.592 29.752 12.968 30.2 12.296L28.248 11.816ZM24.04 7.432V9.624H25.96V7.432H24.04ZM18.072 8.52V11.704H19.848V10.136H30.024V11.704H31.896V8.52H18.072ZM39.256 9.72V11.464H48.424V9.72H39.256ZM42.92 7.496V10.632H44.808V7.496H42.92ZM43.992 19.32C45.064 20.28 46.44 21.656 47.08 22.488L48.632 21.304C47.928 20.456 46.472 19.16 45.448 18.28L43.992 19.32ZM39.384 13.944C40.536 14.76 42.024 15.976 42.696 16.792L43.864 15.288C43.144 14.504 41.592 13.368 40.472 12.632L39.384 13.944ZM42.696 10.568C42.232 11.576 41.368 12.952 40.68 13.816L42.056 14.536C42.792 13.752 43.736 12.52 44.584 11.416L42.696 10.568ZM46.744 15.352C45.16 18.072 42.152 19.896 38.648 20.872C39.08 21.304 39.544 21.96 39.784 22.44C43.544 21.208 46.6 19.192 48.472 16.072L46.744 15.352ZM45.528 12.216C44.216 14.632 41.752 16.616 39.08 17.72C39.496 18.088 40.008 18.696 40.248 19.128C43.144 17.736 45.624 15.608 47.192 12.888L45.528 12.216ZM33.704 10.712V12.504H39.16V10.712H33.704ZM35.752 7.416V22.44H37.528V7.416H35.752ZM35.72 11.944C35.32 13.992 34.376 16.488 33.336 17.88C33.624 18.344 34.04 19.096 34.216 19.624C35.384 17.976 36.344 14.888 36.808 12.328L35.72 11.944ZM37.448 13.224L36.616 14.024C37.08 14.84 38.088 16.712 38.488 17.704L39.528 16.264C39.224 15.784 37.832 13.672 37.448 13.224ZM53.384 13.656H49.512V15.432H51.56V19.544H53.384V13.656ZM53.384 18.792H51.72C50.952 19.384 50.056 19.96 49.304 20.392L50.184 22.296C51.096 21.624 51.848 21 52.584 20.376C53.544 21.608 54.824 22.072 56.744 22.152C58.712 22.248 62.12 22.216 64.104 22.12C64.2 21.56 64.488 20.68 64.696 20.248C62.488 20.424 58.68 20.472 56.776 20.376C55.128 20.312 54.024 19.864 53.384 18.792ZM49.736 8.984C50.728 9.72 51.928 10.84 52.44 11.608L53.88 10.232C53.304 9.464 52.056 8.424 51.064 7.752L49.736 8.984ZM56.216 10.52C57.688 11.096 59.672 12.008 60.648 12.616L61.96 11.48C60.872 10.856 58.856 9.992 57.432 9.496L56.216 10.52ZM54.76 11.432V19.72H56.568V12.824H62.904V11.432H54.76ZM62.008 11.432V18.04C62.008 18.216 61.96 18.28 61.768 18.28C61.608 18.28 61.048 18.28 60.536 18.264C60.744 18.68 60.952 19.304 61.016 19.768C61.976 19.768 62.68 19.768 63.176 19.496C63.704 19.24 63.832 18.84 63.832 18.056V11.432H62.008ZM54.904 7.944V9.4H62.536V7.944H54.904ZM55.768 13.688V15.016H62.632V13.688H55.768ZM55.768 15.928V17.32H62.632V15.928H55.768ZM58.408 12.088V19.656H60.12V12.088H58.408ZM61.848 7.944V8.28C61.24 9.016 59.848 10.024 58.648 10.6C58.92 10.856 59.384 11.352 59.608 11.672C61.08 10.968 62.664 9.832 63.8 8.776L62.664 7.848L62.28 7.944H61.848ZM69.24 13.656H65.608V15.432H67.4V19.544H69.24V13.656ZM69.24 18.792H67.576C66.872 19.384 66.088 19.96 65.416 20.392L66.328 22.296C67.128 21.608 67.8 21 68.44 20.376C69.4 21.608 70.696 22.072 72.616 22.152C74.568 22.248 77.976 22.216 79.976 22.12C80.056 21.56 80.36 20.68 80.568 20.248C78.344 20.424 74.552 20.472 72.632 20.376C70.984 20.312 69.848 19.848 69.24 18.792ZM65.656 8.904C66.568 9.688 67.64 10.792 68.072 11.576L69.656 10.36C69.16 9.608 68.04 8.536 67.128 7.832L65.656 8.904ZM70.376 12.808V19.8H72.04V14.264H79.016V12.808H70.376ZM74.2 10.296V13.368H75.544V11.496H77.496V10.296H74.2ZM71.576 7.896V13.208H73.24V9.304H76.776V13.208H78.504V7.896H71.576ZM73.72 14.92V16.152H75.688V17.256H73.72V18.456H77.08V14.92H73.72ZM77.944 12.808V18.152C77.944 18.312 77.88 18.36 77.72 18.36C77.576 18.36 77.064 18.36 76.6 18.344C76.792 18.76 77 19.4 77.064 19.848C77.928 19.848 78.584 19.832 79.064 19.592C79.56 19.336 79.672 18.92 79.672 18.168V12.808H77.944ZM72.856 14.92V18.952H74.248V14.92H72.856Z" fill="white"/>
</svg>
