<svg width="100" height="33" viewBox="0 0 100 33" fill="none" xmlns="http://www.w3.org/2000/svg">
<rect width="100" height="33" rx="15" fill="#569A59"/>
<path d="M27.6381 11.448V18.936C27.6381 21.384 28.5821 21.992 31.6861 21.992C32.4061 21.992 36.2461 21.992 37.0301 21.992C39.9581 21.992 40.6621 21.112 41.0301 18.072C40.4701 17.976 39.5741 17.64 39.0781 17.32C38.8541 19.672 38.5981 20.088 36.9501 20.088C36.0061 20.088 32.5021 20.088 31.6701 20.088C29.8941 20.088 29.6221 19.928 29.6221 18.936V11.448H27.6381ZM28.7901 13.624V15.528H37.6381V13.624H28.7901ZM26.9981 8.312V10.216H36.9181V16.264H38.9181V8.312H26.9981ZM49.0941 12.216V14.152H55.7501V12.216H49.0941ZM42.2461 19.72V21.656H56.8701V19.72H42.2461ZM48.0061 7.608V20.792H50.0701V7.608H48.0061ZM58.3581 16.04V17.72H72.6781V16.04H58.3581ZM64.5181 14.888V22.472H66.5341V14.888H64.5181ZM64.0061 17.128C62.7581 18.632 60.3421 20.008 58.0221 20.664C58.4221 21.048 58.9981 21.768 59.2701 22.232C61.6541 21.368 64.0541 19.688 65.4941 17.752L64.0061 17.128ZM67.0301 17.064L65.4941 17.736C66.9661 19.624 69.3981 21.256 71.7981 22.072C72.0861 21.592 72.6621 20.856 73.0781 20.472C70.7101 19.848 68.2781 18.536 67.0301 17.064ZM58.3741 9V10.664H64.5981V9H58.3741ZM63.8141 9V9.272C63.7181 11.88 63.6061 12.84 63.3821 13.096C63.2541 13.24 63.1261 13.272 62.9181 13.272C62.6781 13.272 62.1981 13.256 61.6541 13.208C61.9261 13.656 62.1181 14.376 62.1501 14.888C62.8381 14.92 63.4941 14.904 63.8621 14.84C64.3101 14.776 64.6461 14.648 64.9661 14.28C65.3341 13.8 65.4781 12.552 65.6061 9.688C65.6221 9.464 65.6381 9 65.6381 9H63.8141ZM60.5501 7.416C60.4701 10.568 60.2941 12.728 57.9741 14.008C58.3901 14.328 58.9021 15.016 59.1261 15.464C61.8781 13.896 62.2621 11.16 62.3901 7.416H60.5501ZM68.1341 10.28H70.4061V12.84H68.1341V10.28ZM66.3421 8.632V14.488H72.3261V8.632H66.3421Z" fill="white"/>
</svg>
