<svg width="100" height="33" viewBox="0 0 100 33" fill="none" xmlns="http://www.w3.org/2000/svg">
<rect width="100" height="33" rx="15" fill="#569A59"/>
<path d="M27.6381 11.448V18.936C27.6381 21.384 28.5821 21.992 31.6861 21.992C32.4061 21.992 36.2461 21.992 37.0301 21.992C39.9581 21.992 40.6621 21.112 41.0301 18.072C40.4701 17.976 39.5741 17.64 39.0781 17.32C38.8541 19.672 38.5981 20.088 36.9501 20.088C36.0061 20.088 32.5021 20.088 31.6701 20.088C29.8941 20.088 29.6221 19.928 29.6221 18.936V11.448H27.6381ZM28.7901 13.624V15.528H37.6381V13.624H28.7901ZM26.9981 8.312V10.216H36.9181V16.264H38.9181V8.312H26.9981ZM47.1581 10.872V12.824H57.0461V10.872H47.1581ZM53.2861 7.592V20.104C53.2861 20.472 53.1261 20.584 52.7261 20.6C52.3421 20.616 50.9501 20.616 49.7021 20.552C49.9901 21.064 50.3421 21.928 50.4381 22.456C52.2141 22.472 53.4301 22.44 54.2141 22.136C54.9821 21.848 55.2701 21.336 55.2701 20.12V7.592H53.2861ZM47.8781 14.76C48.5981 15.992 49.5421 17.64 49.9581 18.616L51.7821 17.688C51.3021 16.712 50.2941 15.128 49.5741 13.96L47.8781 14.76ZM44.2141 12.12V22.408H46.1661V10.216L46.1501 10.184L44.2141 12.12ZM45.8141 7.496C44.9501 9.848 43.4941 12.184 41.9581 13.64C42.3101 14.12 42.8861 15.176 43.0941 15.656C44.9021 13.816 46.6301 10.888 47.7021 8.104L45.8141 7.496ZM58.2461 8.696V10.264H65.7501V8.696H58.2461ZM58.0221 15.688V17.256H65.9261V15.688H58.0221ZM58.6301 11.08V12.632H65.3821V11.08H58.6301ZM58.7261 13.384V14.936H65.3021V13.384H58.7261ZM61.1421 16.36V20.616C61.1421 20.76 61.0941 20.808 60.9181 20.808C60.7581 20.824 60.2301 20.824 59.7341 20.808C59.9421 21.272 60.1821 21.96 60.2461 22.456C61.1261 22.456 61.7821 22.424 62.2781 22.168C62.8061 21.896 62.9181 21.432 62.9181 20.648V16.36H61.1421ZM61.1101 7.512V12.088H62.9181V7.512H61.1101ZM58.9981 17.544C58.7901 18.712 58.3901 19.912 57.7661 20.696C58.1661 20.84 58.8861 21.176 59.2221 21.416C59.8141 20.536 60.3261 19.192 60.5821 17.832L58.9981 17.544ZM63.3661 18.072C63.7341 18.824 64.1181 19.816 64.2621 20.424L65.7501 19.784C65.6061 19.176 65.1901 18.232 64.7901 17.528L63.3661 18.072ZM67.1901 10.312V12.056H71.7181V10.312H67.1901ZM69.1261 10.984H68.1821V13.736C68.1821 15.352 67.5901 18.904 64.6781 20.856C65.0141 21.208 65.5581 22.024 65.7501 22.44C67.8781 21.016 68.9021 18.392 69.1101 16.968C69.3181 18.344 70.1981 21.096 72.0701 22.44C72.3421 21.976 72.8861 21.192 73.2221 20.76C70.6301 18.84 70.0381 15.32 70.0381 13.736V10.984H69.1261ZM66.8381 7.384C66.5661 9.944 65.9741 12.456 64.9181 13.992C65.3661 14.264 66.1981 14.872 66.5181 15.192C67.6541 13.4 68.3901 10.584 68.7581 7.672L66.8381 7.384ZM71.1901 10.312V10.6C71.0781 11.912 70.8861 13.608 70.6941 14.648L72.1981 15.08C72.5021 13.912 72.8061 12.12 72.9981 10.568L71.7341 10.248L71.4461 10.312H71.1901Z" fill="white"/>
</svg>
