<svg width="100" height="33" viewBox="0 0 100 33" fill="none" xmlns="http://www.w3.org/2000/svg">
<rect width="100" height="33" rx="15" fill="#F01D01"/>
<path d="M34.066 9.8401V11.5681H42.722V9.8401H34.066ZM33.33 15.9841V17.7281H43.346V15.9841H33.33ZM33.17 12.9761V14.7201H43.474V12.9761H33.17ZM37.346 8.0801V13.8721H39.266V8.0801H37.346ZM39.538 14.4161V20.9921C39.538 21.2001 39.458 21.2641 39.218 21.2641C38.962 21.2801 38.082 21.2801 37.298 21.2321C37.538 21.7441 37.81 22.5121 37.89 23.0401C39.106 23.0401 39.986 23.0241 40.642 22.7361C41.282 22.4481 41.458 21.9681 41.458 21.0241V14.4161H39.538ZM34.21 18.6401C34.914 19.5041 35.698 20.7041 35.986 21.4721L37.666 20.5601C37.33 19.7761 36.498 18.6401 35.794 17.8241L34.21 18.6401ZM32.082 11.5521C31.17 13.1041 29.618 14.6881 28.226 15.6801C28.514 16.1441 28.994 17.2321 29.122 17.6641C30.77 16.3361 32.61 14.2241 33.746 12.2561L32.082 11.5521ZM31.698 8.0321C31.026 9.1041 29.618 10.4161 28.402 11.1841C28.674 11.5841 29.138 12.3681 29.33 12.8001C30.818 11.8241 32.434 10.2561 33.474 8.7681L31.698 8.0321ZM30.578 15.1201V23.0401H32.418V13.3921L32.338 13.3441L30.578 15.1201ZM51.298 8.5601V10.1761H56.05V13.2801H51.17V14.8961H57.922V8.5601H51.298ZM50.162 8.5601V18.9121H52.018V8.5601H50.162ZM51.234 11.0081V12.4001H56.642V11.0081H51.234ZM49.154 18.4961L49.458 20.3201C50.962 19.9681 52.866 19.5361 54.674 19.0881L54.53 17.4401C52.562 17.8561 50.514 18.2721 49.154 18.4961ZM54.818 14.2401L53.202 14.5441C54.018 17.4241 55.458 19.4561 58.114 20.4161C58.37 19.9041 58.914 19.1521 59.33 18.7681C56.93 18.0961 55.49 16.4481 54.818 14.2401ZM57.682 14.5761C57.026 15.2001 55.906 16.0481 55.074 16.5281L56.194 17.5201C57.042 17.1041 58.146 16.4161 59.154 15.7601L57.682 14.5761ZM48.37 14.2561H44.626V16.0321H46.498V20.1441H48.37V14.2561ZM48.37 19.3121H46.61C45.874 19.8881 45.01 20.4481 44.29 20.8961L45.234 22.8961C46.098 22.1921 46.818 21.5841 47.522 20.9601C48.562 22.2081 49.89 22.6721 51.858 22.7521C53.778 22.8321 57.01 22.8001 58.946 22.7041C59.026 22.1281 59.346 21.2001 59.554 20.7521C57.394 20.9281 53.762 20.9761 51.89 20.8961C50.226 20.8321 49.01 20.3681 48.37 19.3121ZM44.706 9.5681C45.666 10.2881 46.818 11.3601 47.298 12.1121L48.818 10.8481C48.274 10.0961 47.09 9.0881 46.13 8.4161L44.706 9.5681ZM60.626 9.2961V10.8641H68.13V9.2961H60.626ZM60.402 16.2881V17.8561H68.306V16.2881H60.402ZM61.01 11.6801V13.2321H67.762V11.6801H61.01ZM61.106 13.9841V15.5361H67.682V13.9841H61.106ZM63.522 16.9601V21.2161C63.522 21.3601 63.474 21.4081 63.298 21.4081C63.138 21.4241 62.61 21.4241 62.114 21.4081C62.322 21.8721 62.562 22.5601 62.626 23.0561C63.506 23.0561 64.162 23.0241 64.658 22.7681C65.186 22.4961 65.298 22.0321 65.298 21.2481V16.9601H63.522ZM63.49 8.1121V12.6881H65.298V8.1121H63.49ZM61.378 18.1441C61.17 19.3121 60.77 20.5121 60.146 21.2961C60.546 21.4401 61.266 21.7761 61.602 22.0161C62.194 21.1361 62.706 19.7921 62.962 18.4321L61.378 18.1441ZM65.746 18.6721C66.114 19.4241 66.498 20.4161 66.642 21.0241L68.13 20.3841C67.986 19.7761 67.57 18.8321 67.17 18.1281L65.746 18.6721ZM69.57 10.9121V12.6561H74.098V10.9121H69.57ZM71.506 11.5841H70.562V14.3361C70.562 15.9521 69.97 19.5041 67.058 21.4561C67.394 21.8081 67.938 22.6241 68.13 23.0401C70.258 21.6161 71.282 18.9921 71.49 17.5681C71.698 18.9441 72.578 21.6961 74.45 23.0401C74.722 22.5761 75.266 21.7921 75.602 21.3601C73.01 19.4401 72.418 15.9201 72.418 14.3361V11.5841H71.506ZM69.218 7.9841C68.946 10.5441 68.354 13.0561 67.298 14.5921C67.746 14.8641 68.578 15.4721 68.898 15.7921C70.034 14.0001 70.77 11.1841 71.138 8.2721L69.218 7.9841ZM73.57 10.9121V11.2001C73.458 12.5121 73.266 14.2081 73.074 15.2481L74.578 15.6801C74.882 14.5121 75.186 12.7201 75.378 11.1681L74.114 10.8481L73.826 10.9121H73.57Z" fill="white"/>
</svg>
