<svg width="100" height="33" viewBox="0 0 100 33" fill="none" xmlns="http://www.w3.org/2000/svg">
<rect width="100" height="33" rx="15" fill="#569A59"/>
<path d="M27.6381 11.448V18.936C27.6381 21.384 28.5821 21.992 31.6861 21.992C32.4061 21.992 36.2461 21.992 37.0301 21.992C39.9581 21.992 40.6621 21.112 41.0301 18.072C40.4701 17.976 39.5741 17.64 39.0781 17.32C38.8541 19.672 38.5981 20.088 36.9501 20.088C36.0061 20.088 32.5021 20.088 31.6701 20.088C29.8941 20.088 29.6221 19.928 29.6221 18.936V11.448H27.6381ZM28.7901 13.624V15.528H37.6381V13.624H28.7901ZM26.9981 8.312V10.216H36.9181V16.264H38.9181V8.312H26.9981ZM48.9181 7.96V9.576H53.6701V12.68H48.7901V14.296H55.5421V7.96H48.9181ZM47.7821 7.96V18.312H49.6381V7.96H47.7821ZM48.8541 10.408V11.8H54.2621V10.408H48.8541ZM46.7741 17.896L47.0781 19.72C48.5821 19.368 50.4861 18.936 52.2941 18.488L52.1501 16.84C50.1821 17.256 48.1341 17.672 46.7741 17.896ZM52.4381 13.64L50.8221 13.944C51.6381 16.824 53.0781 18.856 55.7341 19.816C55.9901 19.304 56.5341 18.552 56.9501 18.168C54.5501 17.496 53.1101 15.848 52.4381 13.64ZM55.3021 13.976C54.6461 14.6 53.5261 15.448 52.6941 15.928L53.8141 16.92C54.6621 16.504 55.7661 15.816 56.7741 15.16L55.3021 13.976ZM45.9901 13.656H42.2461V15.432H44.1181V19.544H45.9901V13.656ZM45.9901 18.712H44.2301C43.4941 19.288 42.6301 19.848 41.9101 20.296L42.8541 22.296C43.7181 21.592 44.4381 20.984 45.1421 20.36C46.1821 21.608 47.5101 22.072 49.4781 22.152C51.3981 22.232 54.6301 22.2 56.5661 22.104C56.6461 21.528 56.9661 20.6 57.1741 20.152C55.0141 20.328 51.3821 20.376 49.5101 20.296C47.8461 20.232 46.6301 19.768 45.9901 18.712ZM42.3261 8.968C43.2861 9.688 44.4381 10.76 44.9181 11.512L46.4381 10.248C45.8941 9.496 44.7101 8.488 43.7501 7.816L42.3261 8.968ZM58.2461 8.696V10.264H65.7501V8.696H58.2461ZM58.0221 15.688V17.256H65.9261V15.688H58.0221ZM58.6301 11.08V12.632H65.3821V11.08H58.6301ZM58.7261 13.384V14.936H65.3021V13.384H58.7261ZM61.1421 16.36V20.616C61.1421 20.76 61.0941 20.808 60.9181 20.808C60.7581 20.824 60.2301 20.824 59.7341 20.808C59.9421 21.272 60.1821 21.96 60.2461 22.456C61.1261 22.456 61.7821 22.424 62.2781 22.168C62.8061 21.896 62.9181 21.432 62.9181 20.648V16.36H61.1421ZM61.1101 7.512V12.088H62.9181V7.512H61.1101ZM58.9981 17.544C58.7901 18.712 58.3901 19.912 57.7661 20.696C58.1661 20.84 58.8861 21.176 59.2221 21.416C59.8141 20.536 60.3261 19.192 60.5821 17.832L58.9981 17.544ZM63.3661 18.072C63.7341 18.824 64.1181 19.816 64.2621 20.424L65.7501 19.784C65.6061 19.176 65.1901 18.232 64.7901 17.528L63.3661 18.072ZM67.1901 10.312V12.056H71.7181V10.312H67.1901ZM69.1261 10.984H68.1821V13.736C68.1821 15.352 67.5901 18.904 64.6781 20.856C65.0141 21.208 65.5581 22.024 65.7501 22.44C67.8781 21.016 68.9021 18.392 69.1101 16.968C69.3181 18.344 70.1981 21.096 72.0701 22.44C72.3421 21.976 72.8861 21.192 73.2221 20.76C70.6301 18.84 70.0381 15.32 70.0381 13.736V10.984H69.1261ZM66.8381 7.384C66.5661 9.944 65.9741 12.456 64.9181 13.992C65.3661 14.264 66.1981 14.872 66.5181 15.192C67.6541 13.4 68.3901 10.584 68.7581 7.672L66.8381 7.384ZM71.1901 10.312V10.6C71.0781 11.912 70.8861 13.608 70.6941 14.648L72.1981 15.08C72.5021 13.912 72.8061 12.12 72.9981 10.568L71.7341 10.248L71.4461 10.312H71.1901Z" fill="white"/>
</svg>
